<svg width="17" height="16" viewBox="0 0 17 16" fill="none" xmlns="http://www.w3.org/2000/svg">
<rect x="0.5" width="16" height="16" rx="4" fill="#666666"/>
<path d="M8.09995 12.5679C7.48884 12.5679 6.91645 12.4517 6.38277 12.2195C5.84901 11.9873 5.38457 11.6736 4.98944 11.2784C4.59422 10.8832 4.28051 10.4188 4.04828 9.88504C3.85444 9.43956 3.7415 8.96711 3.70947 8.46768C3.69886 8.30233 3.83427 8.16786 3.99995 8.16786H4.34281C4.50849 8.16786 4.64143 8.30246 4.65435 8.46764C4.71882 9.29154 5.05326 10.0057 5.65769 10.6101C6.33428 11.2867 7.14836 11.625 8.09995 11.625C9.05154 11.625 9.86563 11.2867 10.5422 10.6101C11.2188 9.93353 11.5571 9.11945 11.5571 8.16786C11.5571 7.21627 11.2188 6.40218 10.5422 5.7256C9.86563 5.04901 9.04984 4.71072 8.09484 4.71072C8.06773 4.71072 8.05416 4.74349 8.07333 4.76266L8.49363 5.18296C8.60166 5.29099 8.60166 5.46615 8.49363 5.57418L8.23351 5.8343C8.11635 5.95146 7.9264 5.95146 7.80925 5.8343L6.42637 4.45142C6.30921 4.33426 6.30921 4.14431 6.42637 4.02716L7.80925 2.64428C7.9264 2.52712 8.11635 2.52712 8.23351 2.64428L8.49227 2.90303C8.60074 3.01151 8.59989 3.18763 8.49037 3.29505L8.07373 3.70367C8.04978 3.72716 8.06641 3.76786 8.09995 3.76786C8.71106 3.76786 9.28346 3.88397 9.81713 4.11619C10.3509 4.34841 10.8153 4.66213 11.2105 5.05735C11.6057 5.45247 11.9194 5.91692 12.1516 6.45068C12.3838 6.98435 12.5 7.55675 12.5 8.16786C12.5 8.77897 12.3838 9.35136 12.1516 9.88504C11.9194 10.4188 11.6057 10.8832 11.2105 11.2784C10.8153 11.6736 10.3509 11.9873 9.81713 12.2195C9.28346 12.4517 8.71106 12.5679 8.09995 12.5679Z" fill="#D9D9D9"/>
</svg>
